<svg id="visual" viewBox="0 0 960 200" width="960" height="200" xmlns="http://www.w3.org/2000/svg" xmlns:xlink="http://www.w3.org/1999/xlink" version="1.1"><rect x="0" y="0" width="960" height="200" fill="#252322"></rect><path d="M0 158L22.8 154.8C45.7 151.7 91.3 145.3 137 145.7C182.7 146 228.3 153 274 151.7C319.7 150.3 365.3 140.7 411.2 136.3C457 132 503 133 548.8 135.2C594.7 137.3 640.3 140.7 686 142.3C731.7 144 777.3 144 823 148.2C868.7 152.3 914.3 160.7 937.2 164.8L960 169L960 201L937.2 201C914.3 201 868.7 201 823 201C777.3 201 731.7 201 686 201C640.3 201 594.7 201 548.8 201C503 201 457 201 411.2 201C365.3 201 319.7 201 274 201C228.3 201 182.7 201 137 201C91.3 201 45.7 201 22.8 201L0 201Z" fill="#fff" stroke-linecap="round" stroke-linejoin="miter"></path></svg>