<svg id="visual" viewBox="0 0 1268 200" width="1268" height="200" xmlns="http://www.w3.org/2000/svg" xmlns:xlink="http://www.w3.org/1999/xlink" version="1.1"><rect x="0" y="0" width="1268" height="200" fill="#fff"></rect><path d="M0 139L26.5 135.3C53 131.7 106 124.3 158.8 118.2C211.7 112 264.3 107 317.2 113.2C370 119.3 423 136.7 475.8 140C528.7 143.3 581.3 132.7 634.2 123.2C687 113.7 740 105.3 792.8 111.7C845.7 118 898.3 139 951.2 140.8C1004 142.7 1057 125.3 1109.8 122.8C1162.7 120.3 1215.3 132.7 1241.7 138.8L1268 145L1268 201L1241.7 201C1215.3 201 1162.7 201 1109.8 201C1057 201 1004 201 951.2 201C898.3 201 845.7 201 792.8 201C740 201 687 201 634.2 201C581.3 201 528.7 201 475.8 201C423 201 370 201 317.2 201C264.3 201 211.7 201 158.8 201C106 201 53 201 26.5 201L0 201Z" fill="#d7d6d5" stroke-linecap="round" stroke-linejoin="miter"></path></svg>